<svg xmlns="http://www.w3.org/2000/svg" width="14.955" height="13.644" viewBox="0 0 14.955 13.644">
  <path id="Icon_ionic-md-arrow-round-back" data-name="Icon ionic-md-arrow-round-back" d="M19.284,11.836H10.189l3.527-3.263a1.327,1.327,0,0,0,0-1.858,1.286,1.286,0,0,0-1.836,0L6.007,12.223a1.231,1.231,0,0,0-.382.921v.016a1.231,1.231,0,0,0,.382.921l5.869,5.508a1.286,1.286,0,0,0,1.836,0,1.327,1.327,0,0,0,0-1.858l-3.527-3.263H19.28a1.307,1.307,0,0,0,1.3-1.315A1.293,1.293,0,0,0,19.284,11.836Z" transform="translate(-5.625 -6.33)" fill="#00454e"/>
</svg>
